<svg xmlns="http://www.w3.org/2000/svg" viewBox="0 0 512 512"><title>Book</title><g id="Book"><g id="Book-2" data-name="Book"><rect x="197.5261" y="193.5364" width="103.4208" height="15.75"/><rect x="197.5261" y="219.7894" width="103.4208" height="15.75"/><path d="M256,73.82A182.18,182.18,0,0,0,73.82,256c0,100.6,81.567,182.18,182.18,182.18,100.6083,0,182.18-81.58,182.18-182.18A182.1828,182.1828,0,0,0,256,73.82Zm71.9,288.9144H168.2985a2.8,2.8,0,0,1-2.8-2.8V156.5837a2.8,2.8,0,0,1,2.8-2.8H327.9a1.4,1.4,0,0,1,1.4,1.4v206.15A1.4,1.4,0,0,1,327.9,362.7346Zm26.5986-183.744v171.14A12.6023,12.6023,0,0,1,341.9,362.7346H338.494A24.9907,24.9907,0,0,0,341.9,350.131V166.387a25.0881,25.0881,0,0,0-3.4056-12.6036H341.9a12.6023,12.6023,0,0,1,12.5991,12.6036Z"/></g></g></svg>